<?xml version="1.0" encoding="utf-8"?>
<!-- Generator: Adobe Illustrator 16.0.0, SVG Export Plug-In . SVG Version: 6.00 Build 0)  -->
<!DOCTYPE svg PUBLIC "-//W3C//DTD SVG 1.1//EN" "http://www.w3.org/Graphics/SVG/1.1/DTD/svg11.dtd">
<svg version="1.1" id="Layer_1" xmlns="http://www.w3.org/2000/svg" xmlns:xlink="http://www.w3.org/1999/xlink" x="0px" y="0px"
	 width="980px" height="200px" viewBox="0 0 980 200" enable-background="new 0 0 980 200" xml:space="preserve">
<g class="idk_svg">
	<g>
		<path d="M399.294,122.184h16.251v2.929h-16.251V122.184z"/>
		<path d="M440.745,158.328l-3.624,1.392l-20.313-39.552l3.679-1.344L440.745,158.328z"/>
		<path d="M439.701,159.48h22.4v3.359h-22.4V159.48z"/>
		<path d="M474.563,163.56c-1.684-1.535-3.111-3.224-4.282-5.063c-1.172-1.841-2.114-3.729-2.828-5.664
			c-0.713-1.936-1.234-3.888-1.564-5.856c-0.329-1.968-0.494-3.847-0.494-5.64c0-1.76,0.165-3.615,0.494-5.568
			c0.33-1.951,0.859-3.911,1.593-5.88c0.731-1.968,1.692-3.896,2.882-5.784c1.189-1.888,2.644-3.647,4.365-5.279l2.635,1.68
			c-1.464,1.632-2.682,3.32-3.65,5.064c-0.971,1.744-1.749,3.512-2.334,5.304c-0.586,1.792-0.997,3.576-1.235,5.352
			c-0.238,1.776-0.356,3.48-0.356,5.112c0,1.536,0.137,3.209,0.411,5.016c0.275,1.809,0.714,3.617,1.318,5.425
			c0.604,1.808,1.391,3.575,2.36,5.304c0.97,1.728,2.132,3.295,3.486,4.704L474.563,163.56z"/>
	</g>
	<g>
		<defs>
			<rect id="SVGID_1_" x="395.5" y="113.824" width="82.863" height="51.436"/>
		</defs>
		<clipPath id="SVGID_2_">
			<use xlink:href="#SVGID_1_"  overflow="visible"/>
		</clipPath>
		<g clip-path="url(#SVGID_2_)">
			<path fill="none" stroke="#000000" stroke-miterlimit="10" d="M399.294,122.184h16.251v2.929h-16.251V122.184z"/>
			<path fill="none" stroke="#000000" stroke-miterlimit="10" d="M440.745,158.328l-3.624,1.392l-20.313-39.552l3.679-1.344
				L440.745,158.328z"/>
			<path fill="none" stroke="#000000" stroke-miterlimit="10" d="M439.701,159.48h22.4v3.359h-22.4V159.48z"/>
			<path fill="none" stroke="#000000" stroke-miterlimit="10" d="M474.563,163.56c-1.684-1.535-3.111-3.224-4.282-5.063
				c-1.172-1.841-2.114-3.729-2.828-5.664c-0.713-1.936-1.234-3.888-1.564-5.856c-0.329-1.968-0.494-3.847-0.494-5.64
				c0-1.76,0.165-3.615,0.494-5.568c0.33-1.951,0.859-3.911,1.593-5.88c0.731-1.968,1.692-3.896,2.882-5.784
				c1.189-1.888,2.644-3.647,4.365-5.279l2.635,1.68c-1.464,1.632-2.682,3.32-3.65,5.064c-0.971,1.744-1.749,3.512-2.334,5.304
				c-0.586,1.792-0.997,3.576-1.235,5.352c-0.238,1.776-0.356,3.48-0.356,5.112c0,1.536,0.137,3.209,0.411,5.016
				c0.275,1.809,0.714,3.617,1.318,5.425c0.604,1.808,1.391,3.575,2.36,5.304c0.97,1.728,2.132,3.295,3.486,4.704L474.563,163.56z"
				/>
		</g>
	</g>
	<g>
		<path d="M485.379,115.579c2.086,3.553,4.502,9.313,5.271,12.77l-3.679,1.056c-0.769-3.36-3.074-9.072-5.16-12.816L485.379,115.579
			z M526.5,116.155c-0.165,0.433-0.714,0.624-1.428,0.624c-5.765,16.945-14.769,27.314-31.952,33.892
			c-0.549-0.673-1.812-1.969-2.636-2.641c16.8-6.192,25.42-15.842,30.854-33.314L526.5,116.155z M502.782,112.844
			c1.263,3.983,2.636,9.937,2.91,13.633l-3.898,0.528c-0.329-3.793-1.537-9.554-2.854-13.586L502.782,112.844z"/>
	</g>
	<g>
		<defs>
			<rect id="SVGID_3_" x="476.973" y="107.847" width="54.256" height="47.824"/>
		</defs>
		<clipPath id="SVGID_4_">
			<use xlink:href="#SVGID_3_"  overflow="visible"/>
		</clipPath>
		<g clip-path="url(#SVGID_4_)">
			<path fill="none" stroke="#000000" stroke-miterlimit="10" d="M485.379,115.579c2.086,3.553,4.502,9.313,5.271,12.77
				l-3.679,1.056c-0.769-3.36-3.074-9.072-5.16-12.816L485.379,115.579z M526.5,116.155c-0.165,0.433-0.714,0.624-1.428,0.624
				c-5.765,16.945-14.769,27.314-31.952,33.892c-0.549-0.673-1.812-1.969-2.636-2.641c16.8-6.192,25.42-15.842,30.854-33.314
				L526.5,116.155z M502.782,112.844c1.263,3.983,2.636,9.937,2.91,13.633l-3.898,0.528c-0.329-3.793-1.537-9.554-2.854-13.586
				L502.782,112.844z"/>
		</g>
	</g>
	<g>
		<path d="M535.285,118.824c1.683,1.536,3.11,3.224,4.282,5.063c1.171,1.841,2.113,3.729,2.827,5.664
			c0.714,1.937,1.235,3.889,1.564,5.856c0.33,1.968,0.494,3.848,0.494,5.64c0,1.761-0.164,3.616-0.494,5.568
			c-0.329,1.952-0.86,3.912-1.592,5.88c-0.732,1.968-1.693,3.896-2.883,5.784c-1.189,1.888-2.645,3.647-4.364,5.279l-2.636-1.68
			c1.464-1.632,2.69-3.328,3.679-5.088s1.766-3.536,2.334-5.328c0.566-1.792,0.969-3.567,1.207-5.328
			c0.238-1.759,0.357-3.456,0.357-5.088c0-1.536-0.146-3.199-0.439-4.992c-0.293-1.791-0.741-3.6-1.345-5.424
			c-0.604-1.824-1.383-3.6-2.334-5.328c-0.952-1.728-2.104-3.295-3.459-4.704L535.285,118.824z"/>
		<path d="M547.748,159.48h22.4v3.359h-22.4V159.48z"/>
		<path d="M588.155,118.824l3.459,1.344l-20.039,39.552l-3.459-1.344L588.155,118.824z"/>
		<path d="M592.876,122.184h16.251v2.929h-16.251V122.184z"/>
	</g>
	<g>
		<defs>
			<rect id="SVGID_5_" x="531.484" y="113.824" width="81.437" height="51.436"/>
		</defs>
		<clipPath id="SVGID_6_">
			<use xlink:href="#SVGID_5_"  overflow="visible"/>
		</clipPath>
		<g clip-path="url(#SVGID_6_)">
			<path fill="none" stroke="#000000" stroke-miterlimit="10" d="M535.285,118.824c1.683,1.536,3.11,3.224,4.282,5.063
				c1.171,1.841,2.113,3.729,2.827,5.664c0.714,1.937,1.235,3.889,1.564,5.856c0.33,1.968,0.494,3.848,0.494,5.64
				c0,1.761-0.164,3.616-0.494,5.568c-0.329,1.952-0.86,3.912-1.592,5.88c-0.732,1.968-1.693,3.896-2.883,5.784
				c-1.189,1.888-2.645,3.647-4.364,5.279l-2.636-1.68c1.464-1.632,2.69-3.328,3.679-5.088s1.766-3.536,2.334-5.328
				c0.566-1.792,0.969-3.567,1.207-5.328c0.238-1.759,0.357-3.456,0.357-5.088c0-1.536-0.146-3.199-0.439-4.992
				c-0.293-1.791-0.741-3.6-1.345-5.424c-0.604-1.824-1.383-3.6-2.334-5.328c-0.952-1.728-2.104-3.295-3.459-4.704L535.285,118.824z
				"/>
			<path fill="none" stroke="#000000" stroke-miterlimit="10" d="M547.748,159.48h22.4v3.359h-22.4V159.48z"/>
			<path fill="none" stroke="#000000" stroke-miterlimit="10" d="M588.155,118.824l3.459,1.344l-20.039,39.552l-3.459-1.344
				L588.155,118.824z"/>
			<path fill="none" stroke="#000000" stroke-miterlimit="10" d="M592.876,122.184h16.251v2.929h-16.251V122.184z"/>
		</g>
	</g>
</g>
<style type="text/css">
	g.idk_svg {
	    animation-name: shift;
	    animation-duration: 4s;
	    animation-iteration-count: infinite;
			transition-timing-function: ease-in-out;
	    transform-origin: 50% 50%;
	    display: inline-block;
	}
	@keyframes shift {
		0% {transform:rotate(10deg);}
		50% {transform:rotate(-10deg);}
		100% {transform:rotate(10deg);}
		}
</style>
<text transform="matrix(1.0632 0 0 1 216 93)" font-family="'PTSans-Regular'" font-size="64.4385">VOTE FOR FOODZ?!</text>
<text transform="matrix(1.0632 0 0 1 216 93)" fill="none" stroke="#000000" stroke-width="3" stroke-miterlimit="10" font-family="'PTSans-Regular'" font-size="64.4385">VOTE FOR FOODZ?!</text>
</svg>
